# xmcd CD database file
#
# Track frame offsets:
#	150
#	30395
#	41355
#	64023
#	87902
#	110790
#	132210
#	151861
#	171497
#	192212
#	211256
#	232396
#	251869
#
# Disc length: 3639 seconds
#
# Revision: 0
# Processed by: cddbd v1.5.1PL2 Copyright (c) Steve Scherf et al.
# Submitted via: CDex 1.51
#
DISCID=b50e350d
DTITLE=Acoustic Alchemy  - The Beautiful Game
DYEAR=2000
DGENRE=Jazz
TTITLE0=Angel Of The South
TTITLE1=The Panama Cat
TTITLE2=Trail Blazer
TTITLE3=The Beautiful Game
TTITLE4=Hats Of Magic
TTITLE5=Tete a Tete
TTITLE6=The Last Flamenco
TTITLE7=Kidstuff
TTITLE8=Big Sky Country
TTITLE9=Hold On To Your Heart
TTITLE10=Jubilation
TTITLE11=Big Sky Country [Nashville Bonus]
TTITLE12=Trail Blazer [Nashville Bonus]
EXTD=YEAR: 2000
EXTT0=
EXTT1=
EXTT2=
EXTT3=
EXTT4=
EXTT5=
EXTT6=
EXTT7=
EXTT8=
EXTT9=
EXTT10=
EXTT11=
EXTT12=
PLAYORDER=
